<?xml version="1.0" encoding="UTF-8"?>
<svg width="300px" height="300px" viewBox="0 0 300 300" version="1.1" xmlns="http://www.w3.org/2000/svg" xmlns:xlink="http://www.w3.org/1999/xlink">
    <!-- Generator: Sketch 63.1 (92452) - https://sketch.com -->
    <title>New Product Development</title>
    <desc>Created with Sketch.</desc>
    <defs>
        <linearGradient x1="-20.8062871%" y1="50%" x2="103.035243%" y2="50%" id="linearGradient-1">
            <stop stop-color="#1D2B9E" offset="0%"></stop>
            <stop stop-color="#E85B1F" offset="100%"></stop>
        </linearGradient>
    </defs>
    <g id="Page-2" stroke="none" stroke-width="1" fill="none" fill-rule="evenodd">
        <path d="M257.171631,188.905335 C260.40802,188.905335 263.031006,191.52832 263.031006,194.76471 L263.031006,194.76471 L263.031006,203.581237 C266.011048,204.890442 268.824005,206.517792 271.451569,208.449554 L271.451569,208.449554 L279.091644,204.039001 C281.895446,202.420807 285.477448,203.382111 287.095642,206.183624 L287.095642,206.183624 L299.214935,227.172088 C299.990845,228.517914 300.203705,230.117798 299.800873,231.619263 C299.398041,233.120728 298.416138,234.400177 297.070312,235.176087 L297.070312,235.176087 L289.427948,239.588929 C289.601898,241.200257 289.691162,242.825317 289.691162,244.450378 C289.691162,246.073151 289.601898,247.698212 289.427948,249.30954 L289.427948,249.30954 L297.070312,253.722381 C298.416138,254.50058 299.398041,255.780029 299.800873,257.279205 C300.203705,258.78067 299.990845,260.380554 299.214935,261.72638 L299.214935,261.72638 L287.095642,282.714844 C285.477448,285.516357 281.895446,286.477661 279.091644,284.859466 L279.091644,284.859466 L271.451569,280.446625 C268.824005,282.380677 266.011048,284.008026 263.031006,285.31723 L263.031006,285.31723 L263.031006,294.133758 C263.031006,297.367859 260.40802,299.993133 257.171631,299.993133 L257.171631,299.993133 L232.935333,299.993133 C229.701233,299.993133 227.075958,297.367859 227.075958,294.133758 L227.075958,294.133758 L227.075958,285.31723 C224.098206,284.008026 221.282959,282.380677 218.657684,280.446625 L218.657684,280.446625 L211.01532,284.859466 C208.211517,286.477661 204.629517,285.516357 203.011322,282.714844 L203.011322,282.714844 L190.892029,261.72638 C190.11612,260.380554 189.905548,258.78067 190.30838,257.279205 C190.708923,255.777741 191.690827,254.498291 193.036652,253.722381 L193.036652,253.722381 L200.679016,249.30954 C200.505066,247.695923 200.415802,246.073151 200.415802,244.448089 C200.415802,242.825317 200.505066,241.200257 200.679016,239.586639 L200.679016,239.586639 L193.036652,235.176087 C191.690827,234.397888 190.708923,233.120728 190.30838,231.616974 C189.905548,230.117798 190.11612,228.517914 190.892029,227.172088 L190.892029,227.172088 L203.011322,206.183624 C204.629517,203.382111 208.211517,202.420807 211.01532,204.039001 L211.01532,204.039001 L218.657684,208.449554 C221.282959,206.517792 224.098206,204.890442 227.075958,203.581237 L227.075958,203.581237 L227.075958,194.76471 C227.075958,191.52832 229.701233,188.905335 232.935333,188.905335 L232.935333,188.905335 Z M251.312256,200.624085 L238.794708,200.624085 L238.794708,207.607269 C238.794708,210.136413 237.169647,212.381745 234.764099,213.173675 C230.447388,214.592743 226.528931,216.856384 223.118591,219.905091 C221.232605,221.594238 218.474579,221.878052 216.28418,220.612335 L216.28418,220.612335 L210.227966,217.11731 L203.970337,227.957153 L210.017395,231.447601 C212.205505,232.713318 213.33847,235.237884 212.823486,237.714386 C212.365723,239.918518 212.134552,242.184448 212.134552,244.450378 C212.134552,246.71402 212.365723,248.97995 212.823486,251.184082 C213.33847,253.660583 212.205505,256.187439 210.017395,257.450866 L210.017395,257.450866 L203.970337,260.941315 L210.227966,271.781159 L216.28418,268.286133 C218.476868,267.020416 221.232605,267.306519 223.118591,268.993378 C226.528931,272.042084 230.447388,274.308014 234.764099,275.727081 C237.169647,276.516724 238.794708,278.762054 238.794708,281.293488 L238.794708,281.293488 L238.794708,288.274383 L251.312256,288.274383 L251.312256,281.293488 C251.312256,278.762054 252.937317,276.516724 255.340576,275.727081 C259.659577,274.308014 263.578034,272.042084 266.988373,268.993378 C268.874359,267.30423 271.632386,267.020416 273.822785,268.286133 L273.822785,268.286133 L279.876709,271.781159 L286.136627,260.941315 L280.089569,257.450866 C277.89917,256.187439 276.768493,253.660583 277.283478,251.184082 C277.741242,248.982239 277.972412,246.716309 277.972412,244.450378 C277.972412,242.184448 277.741242,239.916229 277.283478,237.714386 C276.768493,235.237884 277.89917,232.713318 280.089569,231.447601 L280.089569,231.447601 L286.136627,227.957153 L279.876709,217.11731 L273.822785,220.612335 C271.632386,221.878052 268.874359,221.594238 266.988373,219.905091 C263.578034,216.856384 259.659577,214.592743 255.340576,213.173675 C252.937317,212.381745 251.312256,210.136413 251.312256,207.607269 L251.312256,207.607269 L251.312256,200.624085 Z M245.052337,221.992493 C256.684113,221.992493 266.146087,231.454468 266.146087,243.086243 C266.146087,254.715729 256.684113,264.177704 245.052337,264.177704 C233.422852,264.177704 223.960876,254.715729 223.960876,243.086243 C223.960876,231.454468 233.422852,221.992493 245.052337,221.992493 Z M245.052337,233.711243 C239.884186,233.711243 235.677337,237.915802 235.677337,243.086243 C235.677337,248.254395 239.884186,252.458954 245.052337,252.458954 C250.222778,252.458954 254.427337,248.254395 254.427337,243.086243 C254.427337,237.915802 250.222778,233.711243 245.052337,233.711243 Z M102.612305,6.06536836 C105.560303,4.7309877 109.030151,6.03790312 110.366821,8.98361191 C111.701203,11.93161 110.394287,15.4037473 107.448578,16.7381285 C88.3575439,25.3898619 75.6385805,43.7278746 74.2584229,64.595032 C74.1485596,66.2429812 73.3497621,67.7650453 72.0611572,68.7927246 C70.7702637,69.8204039 69.1085813,70.2575684 67.4766539,69.9943541 C64.8811342,69.5732115 62.2879031,69.3626402 59.7724916,69.3626402 C33.274841,69.3626402 11.71875,90.9187318 11.71875,117.416382 C11.71875,132.907104 19.3222043,147.418213 31.6360477,156.362915 L31.6360477,156.362915 L31.6360477,152.048493 C31.6360477,148.814392 34.2590332,146.191406 37.4954227,146.191406 L37.4954227,146.191406 L45.5818178,146.191406 C46.6712953,142.854309 48.0194092,139.606476 49.6124268,136.473083 L49.6124268,136.473083 L43.8903809,130.751038 C41.6015625,128.46222 41.6015625,124.752045 43.8903809,122.465515 L43.8903809,122.465515 L65.9362793,100.417328 C67.0349121,99.3186949 68.524933,98.7007143 70.0790402,98.7007143 C71.633148,98.7007143 73.1231689,99.3186949 74.2218018,100.417328 L74.2218018,100.417328 L79.9438477,106.139374 C83.0795285,104.546356 86.3273619,103.198242 89.6621707,102.108765 L89.6621707,102.108765 L89.6621707,94.0223695 C89.6621707,90.7882687 92.2851563,88.1629945 95.5215457,88.1629945 L95.5215457,88.1629945 L126.699829,88.1629945 C129.933929,88.1629945 132.559204,90.7882687 132.559204,94.0223695 L132.559204,94.0223695 L132.559204,102.108765 C135.894012,103.200531 139.141846,104.546356 142.275238,106.139374 L142.275238,106.139374 L147.997284,100.417328 C149.095917,99.3186949 150.585938,98.7007143 152.140045,98.7007143 C153.694153,98.7007143 155.184173,99.3186949 156.282806,100.417328 L156.282806,100.417328 L178.330993,122.465515 C180.617523,124.752045 180.617523,128.46222 178.330993,130.751038 L178.330993,130.751038 L172.608948,136.473083 C174.201966,139.606476 175.54779,142.854309 176.639557,146.191406 L176.639557,146.191406 L184.723663,146.191406 C187.960052,146.191406 190.583038,148.814392 190.583038,152.048493 L190.583038,152.048493 L190.583038,165.467835 L254.283142,165.467835 C273.021698,165.467835 288.265228,150.224304 288.265228,131.485748 C288.265228,114.331055 275.440979,99.8336789 258.43277,97.7645871 C256.638336,97.5471498 255.047607,96.5126039 254.116058,94.9630734 C253.186798,93.4135436 253.024292,91.5229799 253.674316,89.8361203 C255.04303,86.2953187 255.736542,82.5714111 255.736542,78.769684 C255.736542,61.8209836 241.9487,48.0331418 225.002289,48.0331418 C213.798523,48.0331418 203.475952,54.1397098 198.060608,63.9678955 C196.831512,66.2017822 194.29779,67.3828125 191.798401,66.8907164 C189.296722,66.3986203 187.401581,64.3478391 187.108612,61.8141176 C184.840393,42.1897887 172.219849,24.9183656 154.172516,16.7404172 C151.226807,15.4060365 149.919891,11.9338992 151.254272,8.98590117 C152.590942,6.03790312 156.060791,4.73327637 159.011078,6.06765762 C176.786041,14.122009 190.196228,29.4937137 196.014404,47.7561949 C203.766632,40.5143736 214.082337,36.3143918 225.002289,36.3143918 C248.412323,36.3143918 267.457581,55.3596498 267.457581,78.769684 C267.457581,81.7085268 267.157746,84.6153258 266.560364,87.4626158 C286.022186,92.8688051 299.986267,110.730744 299.986267,131.485748 C299.986267,156.685638 279.483032,177.186585 254.283142,177.186585 L254.283142,177.186585 L190.585327,177.186585 L190.585327,183.226776 C190.585327,186.463165 187.960052,189.086151 184.725952,189.086151 L184.725952,189.086151 L176.639557,189.086151 C175.550079,192.42096 174.201966,195.668793 172.608948,198.804474 L172.608948,198.804474 L178.330993,204.52652 C180.617523,206.815338 180.617523,210.523224 178.330993,212.812042 L178.330993,212.812042 L156.285095,234.857941 C153.993988,237.146759 150.286102,237.14447 147.997284,234.857941 L147.997284,234.857941 L142.275238,229.138184 C139.139557,230.728912 135.891724,232.077026 132.559204,233.168793 L132.559204,233.168793 L132.559204,241.252899 C132.559204,244.489288 129.933929,247.112274 126.699829,247.112274 L126.699829,247.112274 L95.5215457,247.112274 C92.2851563,247.112274 89.6621707,244.489288 89.6621707,241.252899 L89.6621707,241.252899 L89.6621707,233.168793 C86.3273619,232.077026 83.0795285,230.728912 79.9438477,229.138184 L79.9438477,229.138184 L74.2218018,234.857941 C71.9329834,237.146759 68.2250977,237.14447 65.9362793,234.857941 L65.9362793,234.857941 L43.8903809,212.812042 C41.6015625,210.523224 41.6015625,206.81305 43.8903809,204.52652 L43.8903809,204.52652 L49.6101381,198.804474 C48.0194092,195.668793 46.6712953,192.42096 45.5795285,189.086151 L45.5795285,189.086151 L37.4954227,189.086151 C34.2590332,189.086151 31.6360477,186.463165 31.6360477,183.226776 L31.6360477,183.226776 L31.6360477,170.155335 C22.6478578,165.353394 15.0192258,158.338165 9.47570801,149.723053 C3.27758789,140.091705 1.1937118e-12,128.919983 1.1937118e-12,117.416382 C1.1937118e-12,84.4573975 26.8135072,57.6438902 59.7724916,57.6438902 C60.9191895,57.6438902 62.0750426,57.6782227 63.2377623,57.7491762 C66.7762758,35.1150516 81.4476012,15.6555176 102.612305,6.06536836 Z M120.838165,99.8840332 L101.380921,99.8840332 L101.380921,106.505585 C101.380921,109.183502 99.5635986,111.522674 96.9657896,112.184143 C91.6809082,113.527679 86.6134641,115.628815 81.9076535,118.42804 C79.6028139,119.799042 76.6639711,119.432831 74.7665402,117.537689 L74.7665402,117.537689 L70.0790402,112.8479 L56.3186648,126.608276 L61.0084535,131.295776 C62.9013059,133.190918 63.2698061,136.132049 61.8988037,138.434601 C59.0995787,143.1427 56.9984438,148.207855 55.6549072,153.492737 C54.9934389,156.090546 52.6565555,157.907868 49.976349,157.907868 L49.976349,157.907868 L43.3547977,157.907868 L43.3547977,177.367401 L49.976349,177.367401 C52.6565555,177.367401 54.9934389,179.187012 55.6549072,181.782532 C56.9984438,187.067413 59.0995787,192.134857 61.8988037,196.840668 C63.2698061,199.145508 62.9013059,202.084351 61.0084535,203.979492 L61.0084535,203.979492 L56.3186648,208.669281 L70.0790402,222.429657 L74.7688295,217.739868 C76.6639711,215.844727 79.6028139,215.478516 81.9076535,216.847229 C86.6157533,219.648743 91.6831969,221.749878 96.9657896,223.093414 C99.56131,223.752594 101.380921,226.091766 101.380921,228.771973 L101.380921,228.771973 L101.380921,235.393524 L120.840454,235.393524 L120.840454,228.771973 C120.840454,226.091766 122.657776,223.754883 125.255585,223.093414 C130.538177,221.749878 135.603333,219.648743 140.313721,216.847229 C142.616272,215.478516 145.557404,215.844727 147.452545,217.739868 L147.452545,217.739868 L152.140045,222.429657 L165.900421,208.669281 L161.212921,203.979492 C159.31778,202.084351 158.94928,199.145508 160.320282,196.840668 C163.119507,192.134857 165.220642,187.069702 166.564178,181.782532 C167.225647,179.187012 169.564819,177.367401 172.242737,177.367401 L172.242737,177.367401 L178.864288,177.367401 L178.864288,157.907868 L172.242737,157.907868 C169.562531,157.907868 167.225647,156.090546 166.564178,153.492737 C165.220642,148.210144 163.119507,143.1427 160.320282,138.434601 C158.94928,136.132049 159.31778,133.190918 161.210632,131.295776 L161.210632,131.295776 L165.900421,126.608276 L152.140045,112.8479 L147.452545,117.537689 C145.555114,119.430542 142.616272,119.799042 140.311432,118.42804 C135.605621,115.628815 130.540466,113.527679 125.253296,112.184143 C122.657776,111.522674 120.838165,109.183502 120.838165,106.505585 L120.838165,106.505585 L120.838165,99.8840332 Z M111.110687,127.047729 C133.490753,127.047729 151.698304,145.257568 151.698304,167.637634 C151.698304,190.019989 133.490753,208.227539 111.110687,208.227539 C88.7283328,208.227539 70.5207826,190.019989 70.5207826,167.637634 C70.5207826,145.257568 88.7283328,127.047729 111.110687,127.047729 Z M111.110687,138.768768 C95.1896666,138.768768 82.2395326,151.718903 82.2395326,167.637634 C82.2395326,183.558655 95.1896666,196.511078 111.110687,196.511078 C127.029419,196.511078 139.981842,183.558655 139.981842,167.637634 C139.981842,151.718903 127.029419,138.768768 111.110687,138.768768 Z M130.808258,0 C132.350921,0 133.861542,0.627135938 134.951019,1.71661406 C136.040497,2.80609102 136.667633,4.31900039 136.667633,5.859375 C136.667633,7.39974961 136.040497,8.91265898 134.951019,10.0021359 C133.861542,11.0916141 132.350921,11.71875 130.808258,11.71875 C129.267884,11.71875 127.757263,11.0916141 126.667786,10.0021359 C125.576019,8.91265898 124.948883,7.39974961 124.948883,5.859375 C124.948883,4.31213379 125.578308,2.80609102 126.667786,1.71661406 C127.757263,0.627135937 129.267884,0 130.808258,0 Z" id="New-Product-Development" fill="url(#linearGradient-1)" fill-rule="nonzero"></path>
    </g>
</svg>